<?xml version="1.0" encoding="UTF-8" standalone="no"?>
<svg
   xmlns:dc="http://purl.org/dc/elements/1.1/"
   xmlns:cc="http://creativecommons.org/ns#"
   xmlns:rdf="http://www.w3.org/1999/02/22-rdf-syntax-ns#"
   xmlns:svg="http://www.w3.org/2000/svg"
   xmlns="http://www.w3.org/2000/svg"
   xmlns:sodipodi="http://sodipodi.sourceforge.net/DTD/sodipodi-0.dtd"
   xmlns:inkscape="http://www.inkscape.org/namespaces/inkscape"
   height="60"
   id="Layer_1"
   version="1.1"
   viewBox="0 0 60 60"
   width="60"
   xml:space="preserve"
   sodipodi:docname="github.svg"
   inkscape:version="0.92.2 5c3e80d, 2017-08-06"><metadata
     id="metadata9"><rdf:RDF><cc:Work
         rdf:about=""><dc:format>image/svg+xml</dc:format><dc:type
           rdf:resource="http://purl.org/dc/dcmitype/StillImage" /><dc:title></dc:title></cc:Work></rdf:RDF></metadata><defs
     id="defs7" /><sodipodi:namedview
     pagecolor="#ffffff"
     bordercolor="#666666"
     borderopacity="1"
     objecttolerance="10"
     gridtolerance="10"
     guidetolerance="10"
     inkscape:pageopacity="0"
     inkscape:pageshadow="2"
     inkscape:window-width="3200"
     inkscape:window-height="1745"
     id="namedview5"
     showgrid="false"
     inkscape:zoom="14.089552"
     inkscape:cx="26.485906"
     inkscape:cy="28.914353"
     inkscape:window-x="0"
     inkscape:window-y="55"
     inkscape:window-maximized="1"
     inkscape:current-layer="Layer_1" /><path
     d="m 17.543,30.568 c -0.054,0 0.592,1.367 0.61,1.367 1.41,2.516 4.128,4.08 8.713,4.514 -0.654,0.488 -1.44,1.414 -1.549,2.484 -0.823,0.523 -2.478,0.696 -3.764,0.297 -1.803,-0.559 -2.493,-4.066 -5.192,-3.566 -0.584,0.107 -0.468,0.486 0.037,0.809 0.823,0.523 1.597,1.178 2.194,2.571 0.459,1.07 1.423,2.981 4.473,2.981 1.21,0 2.058,-0.143 2.058,-0.143 0,0 0.023,2.731 0.023,3.793 0,1.225 -1.682,1.57 -1.682,2.159 0,0.233 0.557,0.255 1.004,0.255 0.884,0 2.723,-0.725 2.723,-1.998 0,-1.011 0.017,-4.41 0.017,-5.006 0,-1.3 0.709,-1.712 0.709,-1.712 0,0 0.088,6.94 -0.169,7.872 -0.302,1.094 -0.847,0.939 -0.847,1.427 0,0.726 2.214,0.179 2.948,-1.416 0.567,-1.239 0.319,-8.05 0.319,-8.05 l 0.605,-0.012 c 0,0 0.034,3.117 0.013,4.542 -0.021,1.476 -0.123,3.342 0.769,4.222 0.586,0.579 2.484,1.594 2.484,0.666 0,-0.539 -1.04,-0.982 -1.04,-2.441 v -6.715 c 0.831,0 0.706,2.208 0.706,2.208 l 0.061,4.103 c 0,0 -0.184,1.494 1.645,2.119 0.645,0.223 2.025,0.283 2.09,-0.09 0.065,-0.373 -1.662,-0.928 -1.678,-2.084 -0.01,-0.707 0.032,-1.119 0.032,-4.187 0,-3.068 -0.419,-4.202 -1.88,-5.106 4.508,-0.455 7.299,-1.551 8.658,-4.486 0.106,0.003 0.555,-1.371 0.496,-1.371 0.305,-1.108 0.47,-2.419 0.502,-3.971 -0.008,-4.21 -2.058,-5.699 -2.451,-6.398 0.58,-3.187 -0.098,-4.637 -0.412,-5.135 -1.162,-0.406 -4.041,1.045 -5.615,2.067 -2.564,-0.737 -7.986,-0.666 -10.019,0.19 -3.751,-2.639 -5.736,-2.235 -5.736,-2.235 0,0 -1.283,2.259 -0.339,5.565 -1.234,1.546 -2.154,2.64 -2.154,5.539 10e-4,1.634 0.197,3.096 0.638,4.372 z M 0,0 H 60 V 60 H 0 Z"
     style="clip-rule:evenodd;fill:#010101;fill-rule:evenodd"
     id="path2"
     inkscape:connector-curvature="0" /></svg>